<?xml version="1.0" encoding="utf-8"?>
<!-- Svg Vector Icons : http://www.onlinewebfonts.com/icon -->
<!DOCTYPE svg PUBLIC "-//W3C//DTD SVG 1.1//EN" "http://www.w3.org/Graphics/SVG/1.1/DTD/svg11.dtd">
<svg version="1.1" xmlns="http://www.w3.org/2000/svg" xmlns:xlink="http://www.w3.org/1999/xlink" x="0px" y="0px" viewBox="0 0 1000 1000" enable-background="new 0 0 1000 1000" xml:space="preserve">
<metadata> Svg Vector Icons : http://www.onlinewebfonts.com/icon </metadata>
<g><g><path d="M846.5,153.5C753.9,61,630.9,10,500,10c-130.9,0-253.9,51-346.5,143.5S10,369.1,10,500c0,130.9,51,254,143.5,346.5C246.1,939,369.1,990,500,990c130.9,0,253.9-51,346.5-143.5C939,754,990,630.9,990,500C990,369.1,939,246.1,846.5,153.5z M824.8,824.8C738.1,911.6,622.7,959.4,500,959.4c-122.7,0-238.1-47.8-324.8-134.5C88.4,738.1,40.6,622.7,40.6,500c0-122.7,47.8-238.1,134.6-324.8C261.9,88.4,377.3,40.6,500,40.6c122.7,0,238.1,47.8,324.8,134.6c86.8,86.8,134.5,202.1,134.5,324.8C959.4,622.7,911.6,738.1,824.8,824.8z"/><path d="M833.1,230.1c-5.3-6.6-15-7.6-21.5-2.2c-6.6,5.3-7.6,15-2.2,21.5c57.3,70.6,88.8,159.6,88.8,250.6c0,106.4-41.4,206.3-116.6,281.5S606.4,898.1,500,898.1c-98.1,0-192.4-36-265.4-101.4c-6.3-5.6-16-5.1-21.6,1.2c-5.6,6.3-5.1,16,1.2,21.6C292.8,890,394.3,928.8,500,928.8c114.5,0,222.2-44.6,303.2-125.6c81-81,125.6-188.6,125.6-303.2C928.8,401.9,894.8,306.1,833.1,230.1z"/><path d="M101.9,500c0-219.5,178.6-398.1,398.1-398.1c98.1,0,192.4,36,265.4,101.4c6.3,5.6,16,5.1,21.6-1.2c5.6-6.3,5.1-16-1.2-21.6C707.2,110,605.7,71.3,500,71.3c-114.5,0-222.2,44.6-303.2,125.6c-81,81-125.6,188.6-125.6,303.2c0,98.1,34,193.9,95.6,270c3,3.7,7.4,5.7,11.9,5.7c3.4,0,6.8-1.1,9.6-3.4c6.6-5.3,7.6-15,2.2-21.5C133.4,680.1,101.9,591.1,101.9,500z"/><path d="M331.6,254.3c-42.2,0-76.6,34.3-76.6,76.6v336.9c0,42.2,34.3,76.6,76.6,76.6h336.9c42.2,0,76.6-34.3,76.6-76.6V330.9c0-42.2-34.3-76.6-76.6-76.6L331.6,254.3L331.6,254.3z M668.4,713.7H331.6c-25.3,0-45.9-20.6-45.9-45.9V438.1h91c-9.2,18.5-14.4,39.3-14.4,61.3c0,76,61.8,137.8,137.8,137.8s137.8-61.8,137.8-137.8c0-22-5.2-42.8-14.4-61.3h91v229.7C714.4,693.1,693.8,713.7,668.4,713.7z M607.2,499.3c0,59.1-48.1,107.2-107.2,107.2s-107.2-48.1-107.2-107.2S440.9,392.2,500,392.2S607.2,440.2,607.2,499.3z M714.4,330.9v76.6H602.6c-25.3-28.2-61.9-45.9-102.6-45.9s-77.4,17.8-102.6,45.9H285.6v-76.6c0-20,12.8-37,30.6-43.3v89.2c0,8.5,6.9,15.3,15.3,15.3s15.3-6.9,15.3-15.3V285h15.3v91.9c0,8.5,6.9,15.3,15.3,15.3s15.3-6.9,15.3-15.3V285h275.6C693.8,285,714.4,305.6,714.4,330.9z"/><path d="M500,422.8c-8.5,0-15.3,6.9-15.3,15.3s6.9,15.3,15.3,15.3c25.3,0,45.9,20.6,45.9,45.9c0,8.5,6.9,15.3,15.3,15.3s15.3-6.9,15.3-15.3C576.6,457.1,542.2,422.8,500,422.8z"/><path d="M607.2,315.6v61.3c0,8.5,6.9,15.3,15.3,15.3h61.3c8.5,0,15.3-6.9,15.3-15.3v-61.3c0-8.5-6.9-15.3-15.3-15.3h-61.3C614,300.3,607.2,307.1,607.2,315.6z M637.8,330.9h30.6v30.6h-30.6V330.9z"/></g><g></g><g></g><g></g><g></g><g></g><g></g><g></g><g></g><g></g><g></g><g></g><g></g><g></g><g></g><g></g></g>
</svg>